<svg xmlns="http://www.w3.org/2000/svg" width="32" height="32" viewBox="0 0 32 32">
  <defs>
    <clipPath id="c">
      <rect width="32" height="32" rx="6"/>
    </clipPath>
    <linearGradient id="bg" x1="0%" y1="0%" x2="100%" y2="100%">
      <stop offset="0%" stop-color="#4f46e5"/>
      <stop offset="100%" stop-color="#6d28d9"/>
    </linearGradient>
  </defs>
  <g clip-path="url(#c)">
    <rect width="32" height="32" fill="url(#bg)"/>
  <g transform="translate(16,15)">
    <!-- Cap -->
    <polygon points="0,-6 8,-2 0,0 -8,-2" fill="#fff" opacity="0.95"/>
    <rect x="-3.5" y="-2" width="7" height="2" rx="0.5" fill="rgba(255,255,255,0.8)"/>
    <!-- Tassel -->
    <path d="M0,0 Q2,1 2.5,3" fill="none" stroke="rgba(255,255,255,0.7)" stroke-width="0.6" stroke-linecap="round"/>
    <circle cx="2.5" cy="3.3" r="0.7" fill="rgba(255,255,255,0.7)"/>
    <!-- Book -->
    <path d="M-1,3 Q-4,4 -5,5 L-5,9 Q-5,8.5 -4,8 Q-1,7 -1,6 Z" fill="rgba(255,255,255,0.9)"/>
    <path d="M1,3 Q4,4 5,5 L5,9 Q5,8.5 4,8 Q1,7 1,6 Z" fill="rgba(255,255,255,0.9)"/>
    <line x1="0" y1="3" x2="0" y2="6.5" stroke="rgba(255,255,255,0.4)" stroke-width="0.5"/>
  </g>
  </g>
</svg>